# xmcd
#
# Track frame offsets:
#	150
#	12840
#	22726
#	33761
#	45780
#	70466
#	82539
#	94358
#	108943
#	120585
#	133043
#	144709
#	155130
#	167755
#	176643
#	187599
#	197049
#	213461
#
# Disc length: 3003
#
# Revision: 1
# Processed by: cddbd v1.5.1PL0 Copyright (c) Steve Scherf et al.
# Submitted via: CDex 1.40Beta5
# Normalized: r0:TDELIM( - )
#
DISCID=e20bb912
DTITLE=(various) - T for Texas
DYEAR=2002
DGENRE=Blues
TTITLE0=Lightnin' Hopkins - Late in the Evening
TTITLE1=Albert Collins - Freeze
TTITLE2=Johnny Winter - Gangster of Love
TTITLE3=Clarence Brown - Left Over Blues
TTITLE4=Freddie King - Going Down
TTITLE5=Goree Carter - Rock Awhile
TTITLE6=Lester Williams - Wintertime Blues
TTITLE7=Clarence Garlow - Bon Ton Roula
TTITLE8=Smokey Hogg - I Used To Be Rich
TTITLE9=Zuzu Bollin - Why Don't You Eat Where You Slept Last Night?
TTITLE10=Texas Alexander - Cross Roads
TTITLE11=Big Mama Thornton - All Right Baby (with Harlem Stars)
TTITLE12=Frankie Lee Sims - Single Man Blues
TTITLE13=Ivory Joe Hunter - Coming Down With the Blues
TTITLE14=Johnny Copeland - Down on Bending Knees
TTITLE15=Clarence Green - Red Light
TTITLE16=Little Willie Littlefield - My Best Wishes
TTITLE17=T-Bone Walker - T-Bones's Back (Back on the Scene)
EXTD=YEAR: 2002 ID3G:   0
EXTT0=
EXTT1=
EXTT2=
EXTT3=
EXTT4=
EXTT5=
EXTT6=
EXTT7=
EXTT8=
EXTT9=
EXTT10=
EXTT11=
EXTT12=
EXTT13=
EXTT14=
EXTT15=
EXTT16=
EXTT17=
PLAYORDER=
